<?xml version="1.0" encoding="UTF-8"?>
<svg version="1.1" xmlns="http://www.w3.org/2000/svg" width="600" height="600">
<path d="M0 0 C198 0 396 0 600 0 C600 198 600 396 600 600 C402 600 204 600 0 600 C0 402 0 204 0 0 Z " fill="#FDFDFC" transform="translate(0,0)"/>
<path d="M0 0 C1.19109375 1.14275391 1.19109375 1.14275391 2.40625 2.30859375 C6.02214661 4.66655043 7.81507058 3.84720341 12 3 C29.80120102 1.53220103 44.3192144 3.61790549 58.6640625 14.92578125 C64.40316369 20.02187278 68.29531495 25.3347675 72 32 C72.65371582 31.97905273 73.30743164 31.95810547 73.98095703 31.93652344 C95.19555969 31.3471253 111.50130411 33.21303503 127.60546875 48.328125 C136.30598264 58.03636563 141 69.94145612 141 83 C124.83 83 108.66 83 92 83 C91.67 84.65 91.34 86.3 91 88 C90.16857646 89.94514919 89.27555112 91.86453078 88.33984375 93.76171875 C87.79682617 94.87289062 87.25380859 95.9840625 86.69433594 97.12890625 C86.11458008 98.30324219 85.53482422 99.47757812 84.9375 100.6875 C83.74993252 103.1165633 82.56761785 105.54815757 81.38671875 107.98046875 C81.0946756 108.58128265 80.80263245 109.18209656 80.5017395 109.80111694 C77.98663349 114.99157019 75.58108722 120.22467359 73.25 125.5 C72.92765381 126.22791748 72.60530762 126.95583496 72.27319336 127.70581055 C71.07092116 130.44792239 69.94739052 133.15782844 69 136 C74.12938441 135.16616862 79.25089983 134.29628319 84.36865234 133.39379883 C86.10689689 133.09237194 87.84683123 132.80051494 89.58837891 132.51879883 C103.35962298 130.43478649 103.35962298 130.43478649 114 122 C115.39845029 120.60671066 116.80508307 119.22159767 118.21875 117.84375 C119.64842536 116.39839265 121.07549444 114.95045284 122.5 113.5 C127.26665686 108.64651879 132.08947334 103.97911457 137.25 99.54492188 C140.09604455 97.03239817 142.59949844 94.22039016 145.140625 91.40625 C147 90 147 90 148.96875 90.05859375 C151.47649559 91.22083738 153.21409736 92.69625591 155.25 94.5625 C156.30960937 95.52349609 156.30960937 95.52349609 157.390625 96.50390625 C157.92171875 96.99761719 158.4528125 97.49132812 159 98 C156.74634615 102.0402676 154.02783861 105.46559975 151 108.9375 C147.06317119 113.51461291 143.25885903 118.16432298 139.5625 122.9375 C135.69623038 127.91240742 131.7221143 132.7756657 127.625 137.5625 C127.13717041 138.13411865 126.64934082 138.7057373 126.14672852 139.29467773 C124.77940258 140.88013647 123.41474476 142.45653704 122 144 C120.94703735 145.25586914 120.94703735 145.25586914 119.87280273 146.53710938 C116.17550975 149.70684606 112.99075373 150.45226057 108.30859375 151.46484375 C107.03338112 151.76297218 107.03338112 151.76297218 105.73240662 152.06712341 C102.97110356 152.70793558 100.20471146 153.32275634 97.4375 153.9375 C95.53431925 154.37495044 93.63148795 154.81392393 91.72900391 155.25439453 C83.26340681 157.20225018 74.7816252 159.06861322 66.27734375 160.83984375 C65.00898682 161.10482666 63.74062988 161.36980957 62.43383789 161.64282227 C60.13485085 162.11580451 57.83334894 162.57679377 55.52905273 163.02319336 C36.65823364 166.83005966 28.17507492 180.73738762 18 196 C16.63180821 203.95919263 18.39903914 211.24029674 20.58984375 218.83984375 C21.1404702 220.80279378 21.69040852 222.76593693 22.23974609 224.72924805 C22.52863708 225.75400238 22.81752808 226.77875671 23.11517334 227.83456421 C24.60816285 233.1756809 26.03813822 238.53356632 27.47265625 243.890625 C28.0682064 246.10681195 28.66391063 248.3229575 29.25976562 250.5390625 C30.1637762 253.90389536 31.0675453 257.26879275 31.97094727 260.63378906 C35.22503212 272.75220801 38.4971577 284.8641386 41.87133789 296.94970703 C43.67087754 303.39643481 45.42844106 309.85462758 47.1875 316.3125 C47.37364868 316.9952298 47.55979736 317.67795959 47.75158691 318.38137817 C50.05422995 326.8270213 52.34694995 335.27530617 54.62890625 343.7265625 C54.84818283 344.53858627 55.06745941 345.35061005 55.29338074 346.1872406 C56.35064986 350.10343457 57.40693378 354.01989066 58.46166992 357.93676758 C60.68031812 366.16805357 62.93483483 374.38836417 65.22360229 382.60043335 C66.98043882 388.91064157 68.68626465 395.23373137 70.375 401.5625 C73.11929526 411.81850757 75.95326143 422.04682347 78.86669922 432.25610352 C79.14658691 433.24408936 79.42647461 434.2320752 79.71484375 435.25 C80.08790649 436.55710937 80.08790649 436.55710937 80.46850586 437.890625 C81 440 81 440 81 442 C57.57 442 34.14 442 10 442 C6.4421875 429.686875 6.4421875 429.686875 2.8125 417.125 C2.07491455 414.57410645 1.3373291 412.02321289 0.57739258 409.39501953 C-1.28986208 402.93233765 -3.14715925 396.46682771 -5 390 C-5.26830627 389.0663562 -5.53661255 388.1327124 -5.81304932 387.17077637 C-6.5224576 384.69601105 -7.2254494 382.21953425 -7.92578125 379.7421875 C-8.12584274 379.04666779 -8.32590424 378.35114807 -8.5320282 377.634552 C-9.71216071 373.42318583 -10.46841287 369.32908859 -11 365 C-11.78761719 365.50789063 -12.57523438 366.01578125 -13.38671875 366.5390625 C-24.24762468 373.40264092 -35.09280691 378.71650148 -47.515625 382.23828125 C-49.91910895 382.76285342 -49.91910895 382.76285342 -51 384 C-59.90007177 385.85305446 -68.81058781 386.186771 -77.875 386.1875 C-78.83680176 386.1882251 -79.79860352 386.1889502 -80.78955078 386.18969727 C-86.5975026 386.145067 -92.23905357 385.73934117 -98 385 C-98.25136719 386.18464844 -98.50273437 387.36929687 -98.76171875 388.58984375 C-100.2539376 395.29631282 -102.03800835 401.92630582 -103.8125 408.5625 C-103.9891922 409.22486664 -104.1658844 409.88723328 -104.34793091 410.56967163 C-111.92601048 438.92601048 -111.92601048 438.92601048 -114 441 C-116.17805719 441.09429342 -118.3592128 441.11742538 -120.53930664 441.11352539 C-121.22220261 441.11367142 -121.90509857 441.11381744 -122.60868835 441.1139679 C-124.87587614 441.11326876 -127.14298274 441.1054764 -129.41015625 441.09765625 C-130.97814387 441.09579207 -132.54613207 441.09436817 -134.11412048 441.09336853 C-138.24876503 441.08954334 -142.38337466 441.07971306 -146.51800537 441.06866455 C-150.73400398 441.05845044 -154.95000822 441.05387091 -159.16601562 441.04882812 C-167.44402647 441.03809079 -175.7220089 441.02101436 -184 441 C-181.98076328 430.55274213 -181.98076328 430.55274213 -180.51953125 425.50390625 C-180.2464917 424.54830811 -179.97345215 423.59270996 -179.69213867 422.6081543 C-179.40185791 421.60308838 -179.11157715 420.59802246 -178.8125 419.5625 C-176.31835127 410.79883531 -173.9405849 402.01611736 -171.6875 393.1875 C-168.97501523 382.58316438 -166.08184222 372.03796546 -163.125 361.5 C-159.68072485 349.22428793 -156.3906106 336.91938311 -153.25 324.5625 C-150.6919191 314.49927966 -148.06835542 304.46910098 -145.16479492 294.4987793 C-140.57776875 278.73453585 -136.46196974 262.8373392 -132.375 246.9375 C-130.44281532 239.42386463 -128.46495839 231.93562808 -126.25 224.5 C-126.04979248 223.82702881 -125.84958496 223.15405762 -125.64331055 222.46069336 C-124.78335487 219.58459108 -123.91141185 216.71253323 -123.02734375 213.84375 C-122.25836836 211.23996356 -121.58790938 208.64991509 -121 206 C-120.8246875 205.28199219 -120.649375 204.56398438 -120.46875 203.82421875 C-119.6309874 197.45955009 -123.15133437 193.16218248 -126.80273438 188.3112793 C-128.18699062 186.52859086 -129.59128415 184.76339253 -131 183 C-131.79921875 181.96617187 -132.5984375 180.93234375 -133.421875 179.8671875 C-135.5566363 177.16561027 -137.6680822 174.53383258 -140 172 C-140.42297363 171.50153564 -140.84594727 171.00307129 -141.28173828 170.48950195 C-146.50381818 165.11383146 -153.17800977 164.08187936 -160.26135254 162.64328003 C-162.54478234 162.17838249 -164.8206846 161.68574772 -167.09667969 161.18579102 C-172.94297245 159.90709769 -178.79844124 158.67269533 -184.6550293 157.44213867 C-189.99843651 156.31810526 -195.3361914 155.17190538 -200.66870117 153.9972229 C-203.20560059 153.44712747 -205.74757337 152.92778854 -208.29101562 152.40893555 C-216.44492908 150.66528329 -223.02047677 149.21413918 -228 142 C-228.99580078 140.82244141 -228.99580078 140.82244141 -230.01171875 139.62109375 C-230.56472656 138.90050781 -231.11773437 138.17992187 -231.6875 137.4375 C-234.95287879 133.27067494 -238.34471923 129.247327 -241.8125 125.25 C-246.93693547 119.32647517 -251.82452993 113.24647761 -256.625 107.05859375 C-258.15528963 105.08784247 -259.71595606 103.14012709 -261.3125 101.22265625 C-263 99 -263 99 -263 97 C-261.03125 95.2734375 -261.03125 95.2734375 -258.5 93.375 C-257.6646875 92.74335938 -256.829375 92.11171875 -255.96875 91.4609375 C-255.3190625 90.97882813 -254.669375 90.49671875 -254 90 C-250.75248965 91.44495966 -248.42756822 93.22746843 -245.8125 95.625 C-244.94625 96.4190625 -244.08 97.213125 -243.1875 98.03125 C-242.1240094 99.01976868 -241.06162444 100.00947743 -240 101 C-239.33613281 101.61875 -238.67226562 102.2375 -237.98828125 102.875 C-235.7600648 104.95520207 -233.53537127 107.03908745 -231.3125 109.125 C-230.60005127 109.79354004 -229.88760254 110.46208008 -229.15356445 111.15087891 C-225.84345628 114.27075098 -222.58511655 117.41453206 -219.41796875 120.6796875 C-213.24604791 126.82100666 -208.25778618 129.69753142 -199.625 131.125 C-198.84511719 131.26808594 -198.06523437 131.41117188 -197.26171875 131.55859375 C-194.51092726 132.0583426 -191.7557125 132.5281023 -189 133 C-185.94480375 133.53618668 -182.89039761 134.0768253 -179.8359375 134.6171875 C-178.33904258 134.88141922 -176.84213602 135.14558503 -175.34521484 135.40966797 C-174.24129395 135.60447754 -173.13737305 135.79928711 -172 136 C-172.54414551 134.85635986 -173.08829102 133.71271973 -173.64892578 132.53442383 C-175.69606649 128.23139676 -177.74221476 123.92789837 -179.78808594 119.62426758 C-180.66835532 117.77290483 -181.54888249 115.92166462 -182.4296875 114.07055664 C-183.7064327 111.38721545 -184.98220427 108.70341309 -186.2578125 106.01953125 C-186.64244659 105.21167679 -187.02708069 104.40382233 -187.42337036 103.57148743 C-190.66955543 96.73765135 -193.82887797 89.87076441 -197 83 C-212.51 82.67 -228.02 82.34 -244 82 C-244 66.911015 -238.95883824 57.19408014 -228.8125 46.3125 C-220.90941525 38.71854951 -210.17001693 32.06833597 -198.90600586 31.97412109 C-196.71385336 32.10209398 -194.52246559 32.24381861 -192.33203125 32.3984375 C-182.91038829 33.37320583 -182.91038829 33.37320583 -174.09033203 30.86621094 C-171.65231384 28.36410009 -170.21412319 25.5254485 -168.70703125 22.40234375 C-164.20695009 13.43307443 -153.86227998 8.80157912 -145 5 C-144.12730469 4.61972656 -143.25460938 4.23945312 -142.35546875 3.84765625 C-137.42158047 2.60126072 -132.62935278 2.75137606 -127.5625 2.8125 C-126.0455957 2.8134668 -126.0455957 2.8134668 -124.49804688 2.81445312 C-120.22505616 2.83953918 -116.33110457 2.93491392 -112.125 3.76171875 C-108.91207611 4.30224829 -108.91207611 4.30224829 -106.18359375 2.375 C-105.27738281 1.59125 -104.37117187 0.8075 -103.4375 0 C-73.73398736 -24.18552485 -30.02358919 -22.20862553 0 0 Z " fill="#3C6D45" transform="translate(353,79)"/>
<path d="M0 0 C0.33 0 0.66 0 1 0 C1 1.65 1 3.3 1 5 C-15.17 5 -31.34 5 -48 5 C-48.33 6.65 -48.66 8.3 -49 10 C-49.83142354 11.94514919 -50.72444888 13.86453078 -51.66015625 15.76171875 C-52.20317383 16.87289062 -52.74619141 17.9840625 -53.30566406 19.12890625 C-53.88541992 20.30324219 -54.46517578 21.47757813 -55.0625 22.6875 C-56.25006748 25.1165633 -57.43238215 27.54815757 -58.61328125 29.98046875 C-58.9053244 30.58128265 -59.19736755 31.18209656 -59.4982605 31.80111694 C-62.01336651 36.99157019 -64.41891278 42.22467359 -66.75 47.5 C-67.07234619 48.22791748 -67.39469238 48.95583496 -67.72680664 49.70581055 C-68.92907884 52.44792239 -70.05260948 55.15782844 -71 58 C-65.87061559 57.16616862 -60.74910017 56.29628319 -55.63134766 55.39379883 C-53.89310311 55.09237194 -52.15316877 54.80051494 -50.41162109 54.51879883 C-36.64037702 52.43478649 -36.64037702 52.43478649 -26 44 C-24.60154971 42.60671066 -23.19491693 41.22159767 -21.78125 39.84375 C-20.35157464 38.39839265 -18.92450556 36.95045284 -17.5 35.5 C-12.73334314 30.64651879 -7.91052666 25.97911457 -2.75 21.54492188 C0.09604455 19.03239817 2.59949844 16.22039016 5.140625 13.40625 C7 12 7 12 8.96875 12.05859375 C11.47649559 13.22083738 13.21409736 14.69625591 15.25 16.5625 C15.95640625 17.20316406 16.6628125 17.84382813 17.390625 18.50390625 C17.92171875 18.99761719 18.4528125 19.49132812 19 20 C16.74634615 24.0402676 14.02783861 27.46559975 11 30.9375 C7.06317119 35.51461291 3.25885903 40.16432298 -0.4375 44.9375 C-4.30376962 49.91240742 -8.2778857 54.7756657 -12.375 59.5625 C-13.10674438 60.41992798 -13.10674438 60.41992798 -13.85327148 61.29467773 C-15.22059742 62.88013647 -16.58525524 64.45653704 -18 66 C-18.7019751 66.83724609 -19.4039502 67.67449219 -20.12719727 68.53710938 C-23.82449025 71.70684606 -27.00924627 72.45226057 -31.69140625 73.46484375 C-32.541548 73.66359604 -33.39168976 73.86234833 -34.26759338 74.06712341 C-37.02889644 74.70793558 -39.79528854 75.32275634 -42.5625 75.9375 C-44.46568075 76.37495044 -46.36851205 76.81392393 -48.27099609 77.25439453 C-56.73659319 79.20225018 -65.2183748 81.06861322 -73.72265625 82.83984375 C-74.99101318 83.10482666 -76.25937012 83.36980957 -77.56616211 83.64282227 C-79.86514915 84.11580451 -82.16665106 84.57679377 -84.47094727 85.02319336 C-103.34176636 88.83005966 -111.82492508 102.73738762 -122 118 C-123.36819179 125.95919263 -121.60096086 133.24029674 -119.41015625 140.83984375 C-118.8595298 142.80279378 -118.30959148 144.76593693 -117.76025391 146.72924805 C-117.47136292 147.75400238 -117.18247192 148.77875671 -116.88482666 149.83456421 C-115.39183715 155.1756809 -113.96186178 160.53356632 -112.52734375 165.890625 C-111.9317936 168.10681195 -111.33608937 170.3229575 -110.74023438 172.5390625 C-109.8362238 175.90389536 -108.9324547 179.26879275 -108.02905273 182.63378906 C-104.77496788 194.75220801 -101.5028423 206.8641386 -98.12866211 218.94970703 C-96.32912246 225.39643481 -94.57155894 231.85462758 -92.8125 238.3125 C-92.62635132 238.9952298 -92.44020264 239.67795959 -92.24841309 240.38137817 C-89.94577005 248.8270213 -87.65305005 257.27530617 -85.37109375 265.7265625 C-85.15181717 266.53858627 -84.93254059 267.35061005 -84.70661926 268.1872406 C-83.64935014 272.10343457 -82.59306622 276.01989066 -81.53833008 279.93676758 C-79.31968188 288.16805357 -77.06516517 296.38836417 -74.77639771 304.60043335 C-73.01956118 310.91064157 -71.31373535 317.23373137 -69.625 323.5625 C-66.88070474 333.81850757 -64.04673857 344.04682347 -61.13330078 354.25610352 C-60.85341309 355.24408936 -60.57352539 356.2320752 -60.28515625 357.25 C-60.03644775 358.12140625 -59.78773926 358.9928125 -59.53149414 359.890625 C-59 362 -59 362 -59 364 C-82.43 364 -105.86 364 -130 364 C-132.371875 355.79125 -134.74375 347.5825 -137.1875 339.125 C-137.92508545 336.57410645 -138.6626709 334.02321289 -139.42260742 331.39501953 C-141.28986208 324.93233765 -143.14715925 318.46682771 -145 312 C-145.26830627 311.0663562 -145.53661255 310.1327124 -145.81304932 309.17077637 C-146.5224576 306.69601105 -147.2254494 304.21953425 -147.92578125 301.7421875 C-148.12584274 301.04666779 -148.32590424 300.35114807 -148.5320282 299.634552 C-149.71216071 295.42318583 -150.46841287 291.32908859 -151 287 C-151.78761719 287.50789063 -152.57523437 288.01578125 -153.38671875 288.5390625 C-166.36259838 296.73920418 -179.78187461 303.17457598 -195 306 C-194.01 305.67 -193.02 305.34 -192 305 C-192 289.49 -192 273.98 -192 258 C-195.3 258.66 -198.6 259.32 -202 260 C-205.1855999 260.15268107 -208.26116848 260.23860102 -211.4375 260.1875 C-212.61989258 260.1865332 -212.61989258 260.1865332 -213.82617188 260.18554688 C-217.12873173 260.16025067 -219.84760517 260.05079828 -223 259 C-222.39200636 252.37023011 -220.79494535 246.34639585 -218.859375 239.98828125 C-218.53648499 238.90773972 -218.21359497 237.82719818 -217.88092041 236.71391296 C-216.84325837 233.24494932 -215.79714325 229.77861216 -214.75 226.3125 C-214.09311262 224.12844681 -213.43685873 221.94420298 -212.78125 219.75976562 C-212.44791656 218.65156464 -212.11458313 217.54336365 -211.77114868 216.40158081 C-211.06371709 214.02990563 -210.36534748 211.6555132 -209.67489624 209.27883911 C-207.75436156 202.68444454 -205.73099635 196.15389358 -203.48518562 189.66201115 C-193.1812829 159.68104757 -191.17153467 132.08741255 -191.81591797 100.52752686 C-191.89618829 95.73494082 -191.90638245 90.94318006 -191.91578484 86.15000916 C-191.92875558 81.50014086 -191.96907282 76.85086528 -192.01941299 72.20126343 C-192.0427519 70.00048595 -192.06102687 67.79964839 -192.07400131 65.5987854 C-192.09891039 62.56215966 -192.15719562 59.52809374 -192.22607422 56.4921875 C-192.22852142 55.59903336 -192.23096863 54.70587921 -192.23348999 53.78565979 C-192.3701955 49.38873729 -192.54061099 47.56813871 -195.38943481 44.04492188 C-196.25092133 43.37009766 -197.11240784 42.69527344 -198 42 C-198.83917969 41.27039063 -199.67835938 40.54078125 -200.54296875 39.7890625 C-206.51407097 34.90281342 -212.60343943 30.31525019 -219 26 C-217.7151482 21.65962998 -216.05657524 18.20811267 -213.5625 14.4375 C-210.97066103 10.54515558 -210.97066103 10.54515558 -208.90408611 6.36985493 C-207 4 -207 4 -203.3980608 3.38476086 C-201.85908307 3.36368777 -200.31958082 3.37059551 -198.78071594 3.39872742 C-197.93285733 3.39445529 -197.08499872 3.39018317 -196.21144742 3.38578159 C-193.35959082 3.37752069 -190.50919263 3.40508714 -187.6574707 3.43237305 C-185.61764562 3.43378285 -183.57781799 3.43299287 -181.53799438 3.43016052 C-175.99060739 3.42872232 -170.44375783 3.4581777 -164.89649606 3.49303031 C-159.10291513 3.52422647 -153.30932273 3.52721923 -147.51567078 3.53315735 C-136.54024322 3.54871561 -125.56506383 3.58977102 -114.5897457 3.6399048 C-102.0965994 3.69573651 -89.60344142 3.72326925 -77.11020148 3.74838197 C-51.40666324 3.80068504 -25.70334551 3.88866593 0 4 C0 2.68 0 1.36 0 0 Z " fill="#C9A03C" transform="translate(493,157)"/>
<path d="M0 0 C4.29 0 8.58 0 13 0 C18.11966963 9.41766389 22.94791912 18.91922756 27.5 28.625 C33.72279181 41.79733302 40.45016273 53.91093419 50 65 C51.03272472 66.20558131 52.06526308 67.41132227 53.09765625 68.6171875 C54.71488211 70.50511505 56.33436056 72.3906919 57.96411133 74.26782227 C62.37024617 79.35525148 64.25458933 81.84952121 64.1953125 88.63671875 C64.18886719 89.93544922 64.18242187 91.23417969 64.17578125 92.57226562 C64.1590706 93.94401307 64.14214071 95.31575786 64.125 96.6875 C64.11496674 98.07095718 64.10584149 99.45442127 64.09765625 100.83789062 C64.07404967 104.22543452 64.04112037 107.61263072 64 111 C63.50588623 110.61980713 63.01177246 110.23961426 62.50268555 109.84790039 C58.06740706 106.47253271 53.58933212 103.30939327 48.8125 100.4375 C48.16958008 100.05037842 47.52666016 99.66325684 46.86425781 99.2644043 C41.78386542 96.28876375 36.59478064 94.1581116 31.0546875 92.16015625 C11.59159266 84.76816243 0.52613293 70.2177986 -10.234375 53.2890625 C-13.46836185 48.2243025 -16.9246987 43.3295372 -20.41796875 38.44140625 C-22 36 -22 36 -22 34 C-10.45 34 1.1 34 13 34 C11.5975 30.390625 10.195 26.78125 8.75 23.0625 C8.31655273 21.94367432 7.88310547 20.82484863 7.43652344 19.67211914 C5.3366337 14.28770105 3.15361016 8.97739526 0.70800781 3.73999023 C0 2 0 2 0 0 Z " fill="#F9FAF8" transform="translate(197,127)"/>
<path d="M0 0 C0.66 0 1.32 0 2 0 C2.36125977 1.21429688 2.72251953 2.42859375 3.09472656 3.6796875 C4.49585244 8.38881751 5.89759464 13.0977639 7.29946899 17.80667114 C7.93210014 19.93200874 8.56456732 22.05739514 9.1968689 24.18283081 C12.63321844 35.73348862 16.07824725 47.28127556 19.56640625 58.81640625 C20.12014059 60.65038356 20.67385209 62.48436777 21.22753906 64.31835938 C22.26587436 67.7570825 23.30896062 71.19431845 24.35449219 74.63085938 C24.82635324 76.19265355 25.29804281 77.75449955 25.76953125 79.31640625 C25.98243301 80.01125626 26.19533478 80.70610626 26.41468811 81.42201233 C27.56841001 85.26029292 28.43220746 89.03237184 29 93 C16.37057075 104.36648633 -1.82424378 108.20696316 -18.3125 108.125 C-19.10978516 108.12886719 -19.90707031 108.13273437 -20.72851562 108.13671875 C-24.06853439 108.13110055 -26.81033226 108.06322258 -30 107 C-29.39200831 100.37025143 -27.79510284 94.34636959 -25.859375 87.98828125 C-25.38102203 86.38827019 -25.38102203 86.38827019 -24.89300537 84.75593567 C-24.20702791 82.46352874 -23.51823904 80.17196155 -22.8269043 77.88116455 C-21.00227738 71.83468351 -19.19784951 65.78216916 -17.390625 59.73046875 C-17.02364502 58.50368408 -16.65666504 57.27689941 -16.27856445 56.01293945 C-12.61129213 43.73835852 -9.04294222 31.43595336 -5.5 19.125 C-5.21733276 18.14367096 -4.93466553 17.16234192 -4.64343262 16.15127563 C-3.09299909 10.76826827 -1.54509458 5.38454217 0 0 Z " fill="#FAFAF7" transform="translate(300,309)"/>
<path d="M0 0 C3.63 0 7.26 0 11 0 C12.53499442 4.30323223 13.53843948 8.51209885 14.375 13 C16.51797606 23.0215645 21.35919446 27.56735602 29 34 C27.39277496 41.67531958 21.2108783 45.57103525 15.20703125 49.97265625 C9.20315062 53.76804486 2.74544143 56.66729289 -3.69140625 59.6484375 C-4.65626953 60.09703125 -5.62113281 60.545625 -6.61523438 61.0078125 C-8.58032628 61.91938595 -10.54910923 62.82304433 -12.52148438 63.71875 C-18.33765574 66.44204094 -23.28766441 69.46744784 -28.23803711 73.56884766 C-30 75 -30 75 -32 76 C-34.00636118 46.53595463 -34.00636118 46.53595463 -28.47143555 40.10717773 C-26.09429687 37.91462523 -23.57995702 35.9469437 -21 34 C-12.01102373 24.2592766 -4.94818967 12.26290484 0 0 Z " fill="#FCFCF8" transform="translate(373,162)"/>
<path d="M0 0 C1.02370193 0.00888245 2.04740387 0.01776489 3.10212708 0.0269165 C4.84359261 0.02736969 4.84359261 0.02736969 6.62023926 0.02783203 C7.8734346 0.04847717 9.12662994 0.06912231 10.4178009 0.09039307 C12.34248955 0.09888275 12.34248955 0.09888275 14.30606079 0.10754395 C17.7143326 0.12280319 21.12192054 0.16208585 24.52992249 0.20635986 C28.00873056 0.24730729 31.48764934 0.26555373 34.96662903 0.28570557 C41.79047734 0.32858103 48.6138719 0.39683497 55.43733215 0.48101807 C50.56357602 13.64665059 35.34070879 24.65569245 24.50764465 32.88726807 C20.24985 36.16496659 16.20300412 39.6476993 12.43733215 43.48101807 C11.77733215 42.80039307 11.11733215 42.11976807 10.43733215 41.41851807 C2.76859986 33.81351485 -5.73079464 27.64596327 -14.56266785 21.48101807 C-13.27353137 17.13258757 -11.60738335 13.64606754 -9.12516785 9.85601807 C-8.52833191 8.93562744 -7.93149597 8.01523682 -7.3165741 7.06695557 C-6.73778503 6.21359619 -6.15899597 5.36023682 -5.56266785 4.48101807 C-4.94116096 3.42506439 -4.94116096 3.42506439 -4.30709839 2.34777832 C-2.56266785 0.48101807 -2.56266785 0.48101807 0 0 Z " fill="#FCFCF9" transform="translate(288.5626678466797,161.51898193359375)"/>
<path d="M0 0 C-5.52320281 11.51051448 -15.64664975 21.43645775 -24 31 C-24.76441406 31.87785156 -25.52882813 32.75570312 -26.31640625 33.66015625 C-27.87352432 35.44376422 -29.43386494 37.22431166 -31 39 C-34.72617422 37.75794193 -36.39291457 35.8889325 -39 33 C-39 32.34 -39 31.68 -39 31 C-39.99 30.67 -40.98 30.34 -42 30 C-39.50393395 23.9013644 -34.02372654 19.25945849 -29.50976562 14.58984375 C-28.34318997 13.37018308 -27.19115773 12.13643239 -26.0546875 10.88867188 C-17.8545527 1.89712871 -12.70982262 -2.20893926 0 0 Z " fill="#F5F7F3" transform="translate(291,127)"/>
<path d="M0 0 C8.91 0 17.82 0 27 0 C24.29451961 5.41096079 21.71868991 10.15287306 18.25 15 C17.83878906 15.58394531 17.42757813 16.16789062 17.00390625 16.76953125 C16.00744664 18.18311349 15.00443521 19.59207372 14 21 C9.73114765 20.08918883 6.70999928 18.45633598 4 15 C1.88399882 10.19031633 0 5.2918823 0 0 Z " fill="#FCFBF4" transform="translate(400,162)"/>
<path d="M0 0 C5.94 0 11.88 0 18 0 C15.2856761 2.7143239 12.68936525 2.85269322 9 3 C5.64801726 2.79507529 2.32935082 2.43542818 -1 2 C-0.67 1.34 -0.34 0.68 0 0 Z " fill="#225E2B" transform="translate(365,82)"/>
<path d="M0 0 C0.98120464 3.05263664 0.98120464 4.94736336 0 8 C0.495 7.835 0.99 7.67 1.5 7.5 C5.03444089 6.79311182 8.39690701 6.93994845 12 7 C12 7.33 12 7.66 12 8 C10.43883181 8.33951619 8.87598662 8.67132544 7.3125 9 C6.00732422 9.2784375 6.00732422 9.2784375 4.67578125 9.5625 C2.06287036 9.98972047 -0.35813038 10.07616201 -3 10 C-2.49287967 6.28111761 -1.88391785 3.26545761 0 0 Z " fill="#F5EFCE" transform="translate(425,205)"/>
<path d="M0 0 C2.31 1.98 4.62 3.96 7 6 C6.67 6.99 6.34 7.98 6 9 C5.34 9 4.68 9 4 9 C4 8.34 4 7.68 4 7 C2.68 6.34 1.36 5.68 0 5 C0 3.35 0 1.7 0 0 Z " fill="#34683E" transform="translate(196,195)"/>
<path d="M0 0 C0.66 0.33 1.32 0.66 2 1 C1.360625 1.763125 0.72125 2.52625 0.0625 3.3125 C-2.14232781 5.88246713 -2.14232781 5.88246713 -3 9 C-4.32 9 -5.64 9 -7 9 C-5.44499019 5.18315774 -2.96404505 2.80804268 0 0 Z " fill="#2B6639" transform="translate(127,123)"/>
<path d="M0 0 C0.33 0.99 0.66 1.98 1 3 C-1.64 5.97 -4.28 8.94 -7 12 C-7.66 11.67 -8.32 11.34 -9 11 C-6.03 7.37 -3.06 3.74 0 0 Z " fill="#F7F3D7" transform="translate(484,211)"/>
<path d="M0 0 C3 3.75 3 3.75 3 6 C-0.63 5.67 -4.26 5.34 -8 5 C-8 4.67 -8 4.34 -8 4 C-6.865625 3.71125 -5.73125 3.4225 -4.5625 3.125 C-3.386875 2.75375 -2.21125 2.3825 -1 2 C-0.67 1.34 -0.34 0.68 0 0 Z " fill="#D0DECF" transform="translate(178,209)"/>
<path d="M0 0 C0.33 0.99 0.66 1.98 1 3 C-2.3 5.97 -5.6 8.94 -9 12 C-9 9 -9 9 -7.03125 6.73828125 C-5.77828125 5.53751953 -5.77828125 5.53751953 -4.5 4.3125 C-3.6646875 3.50425781 -2.829375 2.69601563 -1.96875 1.86328125 C-1.3190625 1.24839844 -0.669375 0.63351563 0 0 Z " fill="#E3EEE3" transform="translate(259,145)"/>
<path d="M0 0 C0.66 0.33 1.32 0.66 2 1 C-0.31 3.64 -2.62 6.28 -5 9 C-5.66 8.67 -6.32 8.34 -7 8 C-4.69 5.36 -2.38 2.72 0 0 Z " fill="#F9F7DC" transform="translate(393,246)"/>
<path d="M0 0 C2 2 2 2 2.375 4.4375 C2 7 2 7 0 8.8125 C-0.66 9.204375 -1.32 9.59625 -2 10 C-1.125 2.25 -1.125 2.25 0 0 Z " fill="#2A6335" transform="translate(214,353)"/>
<path d="M0 0 C0.99 0 1.98 0 3 0 C1.70700306 2.88437779 0.34058637 4.87219421 -2 7 C-2.66 6.67 -3.32 6.34 -4 6 C-2.84826645 3.53199953 -1.95216435 1.95216435 0 0 Z " fill="#33653E" transform="translate(256,144)"/>
<path d="M0 0 C0.99 0 1.98 0 3 0 C3 2.31 3 4.62 3 7 C2.01 7 1.02 7 0 7 C0 4.69 0 2.38 0 0 Z " fill="#2A6536" transform="translate(110,152)"/>
<path d="M0 0 C-3.08888522 2.05925681 -3.70935927 2.2390374 -7.1875 2.125 C-9.0746875 2.063125 -9.0746875 2.063125 -11 2 C-6.98764085 -0.6749061 -4.6342454 -1.48957888 0 0 Z " fill="#F0EAC7" transform="translate(408,243)"/>
<path d="M0 0 C0 0.66 0 1.32 0 2 C-3.375 2.625 -3.375 2.625 -7 3 C-7.66 2.34 -8.32 1.68 -9 1 C-5.92677456 0.08941469 -3.19902639 -0.08886184 0 0 Z " fill="#497552" transform="translate(156,111)"/>
<path d="M0 0 C0 3 0 3 -1.375 4.6875 C-3 6 -3 6 -5 6 C-5 6.66 -5 7.32 -5 8 C-5.66 8 -6.32 8 -7 8 C-5.50902342 4.2047869 -3.24299151 2.38957269 0 0 Z " fill="#C7A44C" transform="translate(327,182)"/>
</svg>
